<mxfile host="app.diagrams.net" modified="2021-05-13T11:32:23.326Z" agent="5.0 (Windows)" etag="5L3aL-o7VxnIClubyIgY" version="14.6.12" type="github">
  <diagram id="dCkfZ751XXVjo2-rHDso" name="Page-1">
    <mxGraphModel dx="1027" dy="924" grid="1" gridSize="10" guides="1" tooltips="1" connect="1" arrows="1" fold="1" page="0" pageScale="1" pageWidth="850" pageHeight="1100" background="none" math="0" shadow="0">
      <root>
        <mxCell id="0" />
        <mxCell id="1" parent="0" />
        <mxCell id="26YvdgKDF5bMbz9tl3s8-1" value="USER" style="rounded=1;arcSize=10;whiteSpace=wrap;html=1;align=center;" vertex="1" parent="1">
          <mxGeometry x="390" y="-30" width="100" height="40" as="geometry" />
        </mxCell>
        <mxCell id="26YvdgKDF5bMbz9tl3s8-2" value="CLASS" style="rounded=1;arcSize=10;whiteSpace=wrap;html=1;align=center;" vertex="1" parent="1">
          <mxGeometry x="390" y="190" width="100" height="40" as="geometry" />
        </mxCell>
        <mxCell id="26YvdgKDF5bMbz9tl3s8-3" value="ANSWER" style="rounded=1;arcSize=10;whiteSpace=wrap;html=1;align=center;" vertex="1" parent="1">
          <mxGeometry x="390" y="750" width="100" height="40" as="geometry" />
        </mxCell>
        <mxCell id="26YvdgKDF5bMbz9tl3s8-4" value="QUESTION" style="rounded=1;arcSize=10;whiteSpace=wrap;html=1;align=center;" vertex="1" parent="1">
          <mxGeometry x="390" y="470" width="100" height="40" as="geometry" />
        </mxCell>
        <mxCell id="26YvdgKDF5bMbz9tl3s8-5" value="create" style="shape=rhombus;perimeter=rhombusPerimeter;whiteSpace=wrap;html=1;align=center;" vertex="1" parent="1">
          <mxGeometry x="160" y="-40" width="120" height="60" as="geometry" />
        </mxCell>
        <mxCell id="26YvdgKDF5bMbz9tl3s8-6" value="have" style="shape=rhombus;perimeter=rhombusPerimeter;whiteSpace=wrap;html=1;align=center;" vertex="1" parent="1">
          <mxGeometry x="380" y="600" width="120" height="60" as="geometry" />
        </mxCell>
        <mxCell id="26YvdgKDF5bMbz9tl3s8-7" value="have" style="shape=rhombus;perimeter=rhombusPerimeter;whiteSpace=wrap;html=1;align=center;" vertex="1" parent="1">
          <mxGeometry x="380" y="320" width="120" height="60" as="geometry" />
        </mxCell>
        <mxCell id="26YvdgKDF5bMbz9tl3s8-8" value="enroll" style="shape=rhombus;perimeter=rhombusPerimeter;whiteSpace=wrap;html=1;align=center;" vertex="1" parent="1">
          <mxGeometry x="600" y="-40" width="120" height="60" as="geometry" />
        </mxCell>
        <mxCell id="26YvdgKDF5bMbz9tl3s8-9" value="" style="endArrow=none;html=1;rounded=0;exitX=1;exitY=0.5;exitDx=0;exitDy=0;entryX=0;entryY=0.5;entryDx=0;entryDy=0;" edge="1" parent="1" source="26YvdgKDF5bMbz9tl3s8-5" target="26YvdgKDF5bMbz9tl3s8-1">
          <mxGeometry relative="1" as="geometry">
            <mxPoint x="260" y="70" as="sourcePoint" />
            <mxPoint x="420" y="70" as="targetPoint" />
          </mxGeometry>
        </mxCell>
        <mxCell id="26YvdgKDF5bMbz9tl3s8-10" value="" style="endArrow=none;html=1;rounded=0;exitX=1;exitY=0.5;exitDx=0;exitDy=0;entryX=0;entryY=0.5;entryDx=0;entryDy=0;" edge="1" parent="1" source="26YvdgKDF5bMbz9tl3s8-1" target="26YvdgKDF5bMbz9tl3s8-8">
          <mxGeometry relative="1" as="geometry">
            <mxPoint x="470" y="70" as="sourcePoint" />
            <mxPoint x="630" y="70" as="targetPoint" />
          </mxGeometry>
        </mxCell>
        <mxCell id="26YvdgKDF5bMbz9tl3s8-11" value="" style="endArrow=none;html=1;rounded=0;exitX=0.5;exitY=1;exitDx=0;exitDy=0;entryX=0;entryY=0.5;entryDx=0;entryDy=0;shape=link;" edge="1" parent="1" source="26YvdgKDF5bMbz9tl3s8-5" target="26YvdgKDF5bMbz9tl3s8-2">
          <mxGeometry relative="1" as="geometry">
            <mxPoint x="130" y="130" as="sourcePoint" />
            <mxPoint x="290" y="130" as="targetPoint" />
            <Array as="points">
              <mxPoint x="220" y="210" />
            </Array>
          </mxGeometry>
        </mxCell>
        <mxCell id="26YvdgKDF5bMbz9tl3s8-12" value="" style="endArrow=none;html=1;rounded=0;entryX=0.5;entryY=1;entryDx=0;entryDy=0;exitX=0.5;exitY=0;exitDx=0;exitDy=0;" edge="1" parent="1" source="26YvdgKDF5bMbz9tl3s8-7" target="26YvdgKDF5bMbz9tl3s8-2">
          <mxGeometry relative="1" as="geometry">
            <mxPoint x="230" y="300" as="sourcePoint" />
            <mxPoint x="390" y="300" as="targetPoint" />
          </mxGeometry>
        </mxCell>
        <mxCell id="26YvdgKDF5bMbz9tl3s8-13" value="" style="endArrow=none;html=1;rounded=0;entryX=0.5;entryY=1;entryDx=0;entryDy=0;exitX=0.5;exitY=0;exitDx=0;exitDy=0;shape=link;" edge="1" parent="1" source="26YvdgKDF5bMbz9tl3s8-4" target="26YvdgKDF5bMbz9tl3s8-7">
          <mxGeometry relative="1" as="geometry">
            <mxPoint x="220" y="420" as="sourcePoint" />
            <mxPoint x="380" y="420" as="targetPoint" />
          </mxGeometry>
        </mxCell>
        <mxCell id="26YvdgKDF5bMbz9tl3s8-14" value="" style="endArrow=none;html=1;rounded=0;entryX=0.5;entryY=1;entryDx=0;entryDy=0;exitX=0.5;exitY=0;exitDx=0;exitDy=0;" edge="1" parent="1" source="26YvdgKDF5bMbz9tl3s8-6" target="26YvdgKDF5bMbz9tl3s8-4">
          <mxGeometry relative="1" as="geometry">
            <mxPoint x="110" y="550" as="sourcePoint" />
            <mxPoint x="270" y="550" as="targetPoint" />
          </mxGeometry>
        </mxCell>
        <mxCell id="26YvdgKDF5bMbz9tl3s8-15" value="" style="endArrow=none;html=1;rounded=0;entryX=0.5;entryY=1;entryDx=0;entryDy=0;exitX=0.5;exitY=0;exitDx=0;exitDy=0;shape=link;" edge="1" parent="1" source="26YvdgKDF5bMbz9tl3s8-3" target="26YvdgKDF5bMbz9tl3s8-6">
          <mxGeometry relative="1" as="geometry">
            <mxPoint x="180" y="720" as="sourcePoint" />
            <mxPoint x="340" y="720" as="targetPoint" />
          </mxGeometry>
        </mxCell>
        <mxCell id="26YvdgKDF5bMbz9tl3s8-16" value="add" style="shape=rhombus;perimeter=rhombusPerimeter;whiteSpace=wrap;html=1;align=center;" vertex="1" parent="1">
          <mxGeometry x="60" y="-110" width="120" height="60" as="geometry" />
        </mxCell>
        <mxCell id="26YvdgKDF5bMbz9tl3s8-17" value="reply" style="shape=rhombus;perimeter=rhombusPerimeter;whiteSpace=wrap;html=1;align=center;" vertex="1" parent="1">
          <mxGeometry x="710" y="-110" width="120" height="60" as="geometry" />
        </mxCell>
        <mxCell id="26YvdgKDF5bMbz9tl3s8-18" value="" style="endArrow=none;html=1;rounded=0;exitX=0.617;exitY=-0.008;exitDx=0;exitDy=0;exitPerimeter=0;entryX=0;entryY=0.5;entryDx=0;entryDy=0;" edge="1" parent="1" source="26YvdgKDF5bMbz9tl3s8-1" target="26YvdgKDF5bMbz9tl3s8-17">
          <mxGeometry relative="1" as="geometry">
            <mxPoint x="500" y="-70" as="sourcePoint" />
            <mxPoint x="660" y="-70" as="targetPoint" />
            <Array as="points">
              <mxPoint x="452" y="-80" />
            </Array>
          </mxGeometry>
        </mxCell>
        <mxCell id="26YvdgKDF5bMbz9tl3s8-19" value="" style="endArrow=none;html=1;rounded=0;exitX=1;exitY=0.5;exitDx=0;exitDy=0;entryX=0.383;entryY=-0.017;entryDx=0;entryDy=0;entryPerimeter=0;" edge="1" parent="1" source="26YvdgKDF5bMbz9tl3s8-16" target="26YvdgKDF5bMbz9tl3s8-1">
          <mxGeometry relative="1" as="geometry">
            <mxPoint x="260.00000000000006" y="-69.00000000000011" as="sourcePoint" />
            <mxPoint x="482.3" y="-120" as="targetPoint" />
            <Array as="points">
              <mxPoint x="428" y="-80" />
            </Array>
          </mxGeometry>
        </mxCell>
        <mxCell id="26YvdgKDF5bMbz9tl3s8-20" value="" style="endArrow=none;html=1;rounded=0;exitX=0.5;exitY=1;exitDx=0;exitDy=0;entryX=0;entryY=0.5;entryDx=0;entryDy=0;shape=link;" edge="1" parent="1" source="26YvdgKDF5bMbz9tl3s8-16" target="26YvdgKDF5bMbz9tl3s8-4">
          <mxGeometry relative="1" as="geometry">
            <mxPoint x="20" y="100" as="sourcePoint" />
            <mxPoint x="180" y="100" as="targetPoint" />
            <Array as="points">
              <mxPoint x="120" y="490" />
            </Array>
          </mxGeometry>
        </mxCell>
        <mxCell id="26YvdgKDF5bMbz9tl3s8-21" value="" style="endArrow=none;html=1;rounded=0;exitX=0.5;exitY=1;exitDx=0;exitDy=0;entryX=1;entryY=0.5;entryDx=0;entryDy=0;shape=link;" edge="1" parent="1" source="26YvdgKDF5bMbz9tl3s8-17" target="26YvdgKDF5bMbz9tl3s8-3">
          <mxGeometry relative="1" as="geometry">
            <mxPoint x="810" y="110" as="sourcePoint" />
            <mxPoint x="770" y="640" as="targetPoint" />
            <Array as="points">
              <mxPoint x="770" y="770" />
            </Array>
          </mxGeometry>
        </mxCell>
        <mxCell id="26YvdgKDF5bMbz9tl3s8-22" value="1" style="text;html=1;align=center;verticalAlign=middle;resizable=0;points=[];autosize=1;strokeColor=none;" vertex="1" parent="1">
          <mxGeometry x="270" y="-30" width="20" height="20" as="geometry" />
        </mxCell>
        <mxCell id="26YvdgKDF5bMbz9tl3s8-23" value="N" style="text;html=1;align=center;verticalAlign=middle;resizable=0;points=[];autosize=1;strokeColor=none;" vertex="1" parent="1">
          <mxGeometry x="220" y="20" width="20" height="20" as="geometry" />
        </mxCell>
        <mxCell id="26YvdgKDF5bMbz9tl3s8-24" value="1" style="text;html=1;align=center;verticalAlign=middle;resizable=0;points=[];autosize=1;strokeColor=none;" vertex="1" parent="1">
          <mxGeometry x="590" y="-30" width="20" height="20" as="geometry" />
        </mxCell>
        <mxCell id="26YvdgKDF5bMbz9tl3s8-25" value="1" style="text;html=1;align=center;verticalAlign=middle;resizable=0;points=[];autosize=1;strokeColor=none;" vertex="1" parent="1">
          <mxGeometry x="170" y="-100" width="20" height="20" as="geometry" />
        </mxCell>
        <mxCell id="26YvdgKDF5bMbz9tl3s8-26" value="N" style="text;html=1;align=center;verticalAlign=middle;resizable=0;points=[];autosize=1;strokeColor=none;" vertex="1" parent="1">
          <mxGeometry x="121" y="-55" width="20" height="20" as="geometry" />
        </mxCell>
        <mxCell id="26YvdgKDF5bMbz9tl3s8-27" value="1" style="text;html=1;align=center;verticalAlign=middle;resizable=0;points=[];autosize=1;strokeColor=none;" vertex="1" parent="1">
          <mxGeometry x="700" y="-100" width="20" height="20" as="geometry" />
        </mxCell>
        <mxCell id="26YvdgKDF5bMbz9tl3s8-28" value="1" style="text;html=1;align=center;verticalAlign=middle;resizable=0;points=[];autosize=1;strokeColor=none;" vertex="1" parent="1">
          <mxGeometry x="750" y="-50" width="20" height="20" as="geometry" />
        </mxCell>
        <mxCell id="26YvdgKDF5bMbz9tl3s8-29" value="1" style="text;html=1;align=center;verticalAlign=middle;resizable=0;points=[];autosize=1;strokeColor=none;" vertex="1" parent="1">
          <mxGeometry x="440" y="300" width="20" height="20" as="geometry" />
        </mxCell>
        <mxCell id="26YvdgKDF5bMbz9tl3s8-30" value="N" style="text;html=1;align=center;verticalAlign=middle;resizable=0;points=[];autosize=1;strokeColor=none;" vertex="1" parent="1">
          <mxGeometry x="440" y="380" width="20" height="20" as="geometry" />
        </mxCell>
        <mxCell id="26YvdgKDF5bMbz9tl3s8-31" value="1" style="text;html=1;align=center;verticalAlign=middle;resizable=0;points=[];autosize=1;strokeColor=none;" vertex="1" parent="1">
          <mxGeometry x="440" y="580" width="20" height="20" as="geometry" />
        </mxCell>
        <mxCell id="26YvdgKDF5bMbz9tl3s8-32" value="1" style="text;html=1;align=center;verticalAlign=middle;resizable=0;points=[];autosize=1;strokeColor=none;" vertex="1" parent="1">
          <mxGeometry x="440" y="660" width="20" height="20" as="geometry" />
        </mxCell>
        <mxCell id="26YvdgKDF5bMbz9tl3s8-33" value="email" style="ellipse;whiteSpace=wrap;html=1;align=center;fontStyle=4;" vertex="1" parent="1">
          <mxGeometry x="330" y="70" width="100" height="40" as="geometry" />
        </mxCell>
        <mxCell id="26YvdgKDF5bMbz9tl3s8-34" value="id" style="ellipse;whiteSpace=wrap;html=1;align=center;" vertex="1" parent="1">
          <mxGeometry x="270" y="20" width="100" height="40" as="geometry" />
        </mxCell>
        <mxCell id="26YvdgKDF5bMbz9tl3s8-35" value="name" style="ellipse;whiteSpace=wrap;html=1;align=center;" vertex="1" parent="1">
          <mxGeometry x="440" y="90" width="100" height="40" as="geometry" />
        </mxCell>
        <mxCell id="26YvdgKDF5bMbz9tl3s8-36" value="password" style="ellipse;whiteSpace=wrap;html=1;align=center;" vertex="1" parent="1">
          <mxGeometry x="490" y="40" width="100" height="40" as="geometry" />
        </mxCell>
        <mxCell id="26YvdgKDF5bMbz9tl3s8-37" value="" style="endArrow=none;html=1;rounded=0;exitX=0.033;exitY=1.033;exitDx=0;exitDy=0;exitPerimeter=0;entryX=0.9;entryY=0.183;entryDx=0;entryDy=0;entryPerimeter=0;" edge="1" parent="1" source="26YvdgKDF5bMbz9tl3s8-1" target="26YvdgKDF5bMbz9tl3s8-34">
          <mxGeometry relative="1" as="geometry">
            <mxPoint x="380" y="50" as="sourcePoint" />
            <mxPoint x="540" y="50" as="targetPoint" />
          </mxGeometry>
        </mxCell>
        <mxCell id="26YvdgKDF5bMbz9tl3s8-38" value="" style="endArrow=none;html=1;rounded=0;exitX=0.25;exitY=1;exitDx=0;exitDy=0;entryX=0.5;entryY=0;entryDx=0;entryDy=0;" edge="1" parent="1" source="26YvdgKDF5bMbz9tl3s8-1" target="26YvdgKDF5bMbz9tl3s8-33">
          <mxGeometry relative="1" as="geometry">
            <mxPoint x="410" y="40" as="sourcePoint" />
            <mxPoint x="570" y="40" as="targetPoint" />
          </mxGeometry>
        </mxCell>
        <mxCell id="26YvdgKDF5bMbz9tl3s8-39" value="" style="endArrow=none;html=1;rounded=0;exitX=0.5;exitY=1;exitDx=0;exitDy=0;entryX=0.5;entryY=0;entryDx=0;entryDy=0;" edge="1" parent="1" source="26YvdgKDF5bMbz9tl3s8-1" target="26YvdgKDF5bMbz9tl3s8-35">
          <mxGeometry relative="1" as="geometry">
            <mxPoint x="410" y="40" as="sourcePoint" />
            <mxPoint x="570" y="40" as="targetPoint" />
          </mxGeometry>
        </mxCell>
        <mxCell id="26YvdgKDF5bMbz9tl3s8-40" value="" style="endArrow=none;html=1;rounded=0;exitX=0.75;exitY=1;exitDx=0;exitDy=0;entryX=0.5;entryY=0;entryDx=0;entryDy=0;" edge="1" parent="1" source="26YvdgKDF5bMbz9tl3s8-1" target="26YvdgKDF5bMbz9tl3s8-36">
          <mxGeometry relative="1" as="geometry">
            <mxPoint x="500" y="30" as="sourcePoint" />
            <mxPoint x="660" y="30" as="targetPoint" />
          </mxGeometry>
        </mxCell>
        <mxCell id="26YvdgKDF5bMbz9tl3s8-41" value="name" style="ellipse;whiteSpace=wrap;html=1;align=center;" vertex="1" parent="1">
          <mxGeometry x="530" y="230" width="100" height="40" as="geometry" />
        </mxCell>
        <mxCell id="26YvdgKDF5bMbz9tl3s8-42" value="subject" style="ellipse;whiteSpace=wrap;html=1;align=center;" vertex="1" parent="1">
          <mxGeometry x="490" y="280" width="100" height="40" as="geometry" />
        </mxCell>
        <mxCell id="26YvdgKDF5bMbz9tl3s8-43" value="id" style="ellipse;whiteSpace=wrap;html=1;align=center;fontStyle=4;" vertex="1" parent="1">
          <mxGeometry x="230" y="220" width="100" height="40" as="geometry" />
        </mxCell>
        <mxCell id="26YvdgKDF5bMbz9tl3s8-44" value="admin" style="ellipse;whiteSpace=wrap;html=1;align=center;" vertex="1" parent="1">
          <mxGeometry x="210" y="270" width="100" height="40" as="geometry" />
        </mxCell>
        <mxCell id="26YvdgKDF5bMbz9tl3s8-45" value="unique_id" style="ellipse;whiteSpace=wrap;html=1;align=center;" vertex="1" parent="1">
          <mxGeometry x="320" y="290" width="100" height="40" as="geometry" />
        </mxCell>
        <mxCell id="26YvdgKDF5bMbz9tl3s8-46" value="" style="endArrow=none;html=1;rounded=0;exitX=1;exitY=0.5;exitDx=0;exitDy=0;entryX=0;entryY=0.75;entryDx=0;entryDy=0;" edge="1" parent="1" source="26YvdgKDF5bMbz9tl3s8-43" target="26YvdgKDF5bMbz9tl3s8-2">
          <mxGeometry relative="1" as="geometry">
            <mxPoint x="340" y="270" as="sourcePoint" />
            <mxPoint x="500" y="270" as="targetPoint" />
          </mxGeometry>
        </mxCell>
        <mxCell id="26YvdgKDF5bMbz9tl3s8-47" value="" style="endArrow=none;html=1;rounded=0;exitX=1;exitY=0.5;exitDx=0;exitDy=0;" edge="1" parent="1" source="26YvdgKDF5bMbz9tl3s8-44" target="26YvdgKDF5bMbz9tl3s8-2">
          <mxGeometry relative="1" as="geometry">
            <mxPoint x="350" y="270" as="sourcePoint" />
            <mxPoint x="510" y="270" as="targetPoint" />
          </mxGeometry>
        </mxCell>
        <mxCell id="26YvdgKDF5bMbz9tl3s8-48" value="" style="endArrow=none;html=1;rounded=0;exitX=0.25;exitY=1;exitDx=0;exitDy=0;entryX=0.5;entryY=0;entryDx=0;entryDy=0;" edge="1" parent="1" source="26YvdgKDF5bMbz9tl3s8-2" target="26YvdgKDF5bMbz9tl3s8-45">
          <mxGeometry relative="1" as="geometry">
            <mxPoint x="390" y="260" as="sourcePoint" />
            <mxPoint x="550" y="260" as="targetPoint" />
          </mxGeometry>
        </mxCell>
        <mxCell id="26YvdgKDF5bMbz9tl3s8-49" value="" style="endArrow=none;html=1;rounded=0;exitX=0.75;exitY=1;exitDx=0;exitDy=0;entryX=0;entryY=0;entryDx=0;entryDy=0;" edge="1" parent="1" source="26YvdgKDF5bMbz9tl3s8-2" target="26YvdgKDF5bMbz9tl3s8-42">
          <mxGeometry relative="1" as="geometry">
            <mxPoint x="480" y="270" as="sourcePoint" />
            <mxPoint x="640" y="270" as="targetPoint" />
          </mxGeometry>
        </mxCell>
        <mxCell id="26YvdgKDF5bMbz9tl3s8-50" value="" style="endArrow=none;html=1;rounded=0;exitX=1;exitY=0.75;exitDx=0;exitDy=0;entryX=0;entryY=0;entryDx=0;entryDy=0;" edge="1" parent="1" source="26YvdgKDF5bMbz9tl3s8-2" target="26YvdgKDF5bMbz9tl3s8-41">
          <mxGeometry relative="1" as="geometry">
            <mxPoint x="460" y="270" as="sourcePoint" />
            <mxPoint x="620" y="270" as="targetPoint" />
          </mxGeometry>
        </mxCell>
        <mxCell id="26YvdgKDF5bMbz9tl3s8-51" value="id" style="ellipse;whiteSpace=wrap;html=1;align=center;fontStyle=4;" vertex="1" parent="1">
          <mxGeometry x="300" y="550" width="100" height="40" as="geometry" />
        </mxCell>
        <mxCell id="26YvdgKDF5bMbz9tl3s8-52" value="description" style="ellipse;whiteSpace=wrap;html=1;align=center;" vertex="1" parent="1">
          <mxGeometry x="580" y="440" width="100" height="40" as="geometry" />
        </mxCell>
        <mxCell id="26YvdgKDF5bMbz9tl3s8-53" value="id(class)" style="ellipse;whiteSpace=wrap;html=1;align=center;" vertex="1" parent="1">
          <mxGeometry x="580" y="500" width="100" height="40" as="geometry" />
        </mxCell>
        <mxCell id="26YvdgKDF5bMbz9tl3s8-54" value="date" style="ellipse;whiteSpace=wrap;html=1;align=center;" vertex="1" parent="1">
          <mxGeometry x="500" y="400" width="100" height="40" as="geometry" />
        </mxCell>
        <mxCell id="26YvdgKDF5bMbz9tl3s8-55" value="due_date" style="ellipse;whiteSpace=wrap;html=1;align=center;" vertex="1" parent="1">
          <mxGeometry x="520" y="580" width="100" height="40" as="geometry" />
        </mxCell>
        <mxCell id="26YvdgKDF5bMbz9tl3s8-56" value="" style="endArrow=none;html=1;rounded=0;exitX=0.25;exitY=1;exitDx=0;exitDy=0;entryX=0.5;entryY=0;entryDx=0;entryDy=0;" edge="1" parent="1" source="26YvdgKDF5bMbz9tl3s8-4" target="26YvdgKDF5bMbz9tl3s8-51">
          <mxGeometry relative="1" as="geometry">
            <mxPoint x="140" y="550" as="sourcePoint" />
            <mxPoint x="300" y="550" as="targetPoint" />
          </mxGeometry>
        </mxCell>
        <mxCell id="26YvdgKDF5bMbz9tl3s8-57" value="" style="endArrow=none;html=1;rounded=0;exitX=0.75;exitY=1;exitDx=0;exitDy=0;entryX=0.5;entryY=0;entryDx=0;entryDy=0;" edge="1" parent="1" source="26YvdgKDF5bMbz9tl3s8-4" target="26YvdgKDF5bMbz9tl3s8-55">
          <mxGeometry relative="1" as="geometry">
            <mxPoint x="490" y="530" as="sourcePoint" />
            <mxPoint x="650" y="530" as="targetPoint" />
          </mxGeometry>
        </mxCell>
        <mxCell id="26YvdgKDF5bMbz9tl3s8-58" value="" style="endArrow=none;html=1;rounded=0;exitX=1;exitY=0.75;exitDx=0;exitDy=0;entryX=0;entryY=0.5;entryDx=0;entryDy=0;" edge="1" parent="1" source="26YvdgKDF5bMbz9tl3s8-4" target="26YvdgKDF5bMbz9tl3s8-53">
          <mxGeometry relative="1" as="geometry">
            <mxPoint x="520" y="510" as="sourcePoint" />
            <mxPoint x="680" y="510" as="targetPoint" />
          </mxGeometry>
        </mxCell>
        <mxCell id="26YvdgKDF5bMbz9tl3s8-59" value="" style="endArrow=none;html=1;rounded=0;exitX=1;exitY=0.25;exitDx=0;exitDy=0;entryX=0;entryY=0.5;entryDx=0;entryDy=0;" edge="1" parent="1" source="26YvdgKDF5bMbz9tl3s8-4" target="26YvdgKDF5bMbz9tl3s8-52">
          <mxGeometry relative="1" as="geometry">
            <mxPoint x="590" y="480" as="sourcePoint" />
            <mxPoint x="750" y="480" as="targetPoint" />
          </mxGeometry>
        </mxCell>
        <mxCell id="26YvdgKDF5bMbz9tl3s8-60" value="" style="endArrow=none;html=1;rounded=0;entryX=0;entryY=1;entryDx=0;entryDy=0;" edge="1" parent="1" target="26YvdgKDF5bMbz9tl3s8-54">
          <mxGeometry relative="1" as="geometry">
            <mxPoint x="467" y="470" as="sourcePoint" />
            <mxPoint x="670" y="480" as="targetPoint" />
          </mxGeometry>
        </mxCell>
        <mxCell id="26YvdgKDF5bMbz9tl3s8-61" value="id" style="ellipse;whiteSpace=wrap;html=1;align=center;fontStyle=4;" vertex="1" parent="1">
          <mxGeometry x="240" y="730" width="100" height="40" as="geometry" />
        </mxCell>
        <mxCell id="26YvdgKDF5bMbz9tl3s8-62" value="date" style="ellipse;whiteSpace=wrap;html=1;align=center;" vertex="1" parent="1">
          <mxGeometry x="230" y="790" width="100" height="40" as="geometry" />
        </mxCell>
        <mxCell id="26YvdgKDF5bMbz9tl3s8-63" value="id(user)" style="ellipse;whiteSpace=wrap;html=1;align=center;" vertex="1" parent="1">
          <mxGeometry x="520" y="830" width="100" height="40" as="geometry" />
        </mxCell>
        <mxCell id="26YvdgKDF5bMbz9tl3s8-64" value="description" style="ellipse;whiteSpace=wrap;html=1;align=center;" vertex="1" parent="1">
          <mxGeometry x="290" y="860" width="100" height="40" as="geometry" />
        </mxCell>
        <mxCell id="26YvdgKDF5bMbz9tl3s8-65" value="id(question)" style="ellipse;whiteSpace=wrap;html=1;align=center;" vertex="1" parent="1">
          <mxGeometry x="430" y="870" width="100" height="40" as="geometry" />
        </mxCell>
        <mxCell id="26YvdgKDF5bMbz9tl3s8-66" value="" style="endArrow=none;html=1;rounded=0;entryX=0;entryY=0.25;entryDx=0;entryDy=0;exitX=1;exitY=0.5;exitDx=0;exitDy=0;" edge="1" parent="1" source="26YvdgKDF5bMbz9tl3s8-61" target="26YvdgKDF5bMbz9tl3s8-3">
          <mxGeometry relative="1" as="geometry">
            <mxPoint x="120" y="800" as="sourcePoint" />
            <mxPoint x="280" y="800" as="targetPoint" />
          </mxGeometry>
        </mxCell>
        <mxCell id="26YvdgKDF5bMbz9tl3s8-67" value="" style="endArrow=none;html=1;rounded=0;entryX=0;entryY=0.75;entryDx=0;entryDy=0;exitX=1;exitY=0.5;exitDx=0;exitDy=0;" edge="1" parent="1" source="26YvdgKDF5bMbz9tl3s8-62" target="26YvdgKDF5bMbz9tl3s8-3">
          <mxGeometry relative="1" as="geometry">
            <mxPoint x="240" y="770" as="sourcePoint" />
            <mxPoint x="400" y="770" as="targetPoint" />
          </mxGeometry>
        </mxCell>
        <mxCell id="26YvdgKDF5bMbz9tl3s8-68" value="" style="endArrow=none;html=1;rounded=0;exitX=0.25;exitY=1;exitDx=0;exitDy=0;entryX=0.5;entryY=0;entryDx=0;entryDy=0;" edge="1" parent="1" source="26YvdgKDF5bMbz9tl3s8-3" target="26YvdgKDF5bMbz9tl3s8-64">
          <mxGeometry relative="1" as="geometry">
            <mxPoint x="390" y="820" as="sourcePoint" />
            <mxPoint x="340" y="850" as="targetPoint" />
          </mxGeometry>
        </mxCell>
        <mxCell id="26YvdgKDF5bMbz9tl3s8-69" value="" style="endArrow=none;html=1;rounded=0;exitX=0.5;exitY=1;exitDx=0;exitDy=0;entryX=0.5;entryY=0;entryDx=0;entryDy=0;" edge="1" parent="1" source="26YvdgKDF5bMbz9tl3s8-3" target="26YvdgKDF5bMbz9tl3s8-65">
          <mxGeometry relative="1" as="geometry">
            <mxPoint x="470" y="830" as="sourcePoint" />
            <mxPoint x="630" y="830" as="targetPoint" />
          </mxGeometry>
        </mxCell>
        <mxCell id="26YvdgKDF5bMbz9tl3s8-70" value="" style="endArrow=none;html=1;rounded=0;exitX=0.75;exitY=1;exitDx=0;exitDy=0;entryX=0.5;entryY=0;entryDx=0;entryDy=0;" edge="1" parent="1" source="26YvdgKDF5bMbz9tl3s8-3" target="26YvdgKDF5bMbz9tl3s8-63">
          <mxGeometry relative="1" as="geometry">
            <mxPoint x="530" y="790" as="sourcePoint" />
            <mxPoint x="690" y="790" as="targetPoint" />
          </mxGeometry>
        </mxCell>
        <mxCell id="26YvdgKDF5bMbz9tl3s8-71" value="" style="endArrow=none;html=1;rounded=0;exitX=1;exitY=0.5;exitDx=0;exitDy=0;entryX=0.5;entryY=1;entryDx=0;entryDy=0;" edge="1" parent="1" source="26YvdgKDF5bMbz9tl3s8-2" target="26YvdgKDF5bMbz9tl3s8-8">
          <mxGeometry relative="1" as="geometry">
            <mxPoint x="520" y="190" as="sourcePoint" />
            <mxPoint x="680" y="190" as="targetPoint" />
            <Array as="points">
              <mxPoint x="660" y="210" />
            </Array>
          </mxGeometry>
        </mxCell>
        <mxCell id="26YvdgKDF5bMbz9tl3s8-72" value="N" style="text;html=1;align=center;verticalAlign=middle;resizable=0;points=[];autosize=1;strokeColor=none;" vertex="1" parent="1">
          <mxGeometry x="640" y="20" width="20" height="20" as="geometry" />
        </mxCell>
      </root>
    </mxGraphModel>
  </diagram>
</mxfile>
